<svg width="18" height="18" viewBox="0 0 18 18" fill="none" xmlns="http://www.w3.org/2000/svg">
<path d="M8.72429 12.0664C8.20964 12.0664 7.79297 12.4953 7.79297 13.01C7.79297 13.5124 8.19737 13.9536 8.72429 13.9536C9.25121 13.9536 9.66788 13.5125 9.66788 13.01C9.66788 12.4953 9.23901 12.0664 8.72429 12.0664Z" fill="white"/>
<path d="M8.88286 4.92188C7.22851 4.92188 6.46875 5.90221 6.46875 6.56395C6.46875 7.0419 6.87312 7.26247 7.20401 7.26247C7.86572 7.26247 7.59614 6.31888 8.84609 6.31888C9.45882 6.31888 9.94901 6.58849 9.94901 7.15219C9.94901 7.81397 9.26276 8.19383 8.85836 8.53695C8.503 8.84331 8.03732 9.34576 8.03732 10.3996C8.03732 11.0368 8.20884 11.2207 8.7113 11.2207C9.31177 11.2207 9.43429 10.9511 9.43429 10.7183C9.43429 10.081 9.44659 9.71339 10.1206 9.18647C10.4514 8.92912 11.4931 8.09581 11.4931 6.94389C11.4931 5.79196 10.4514 4.92188 8.88286 4.92188Z" fill="white"/>
<path d="M9 0C4.02595 0 0 4.02528 0 9V17.2969C0 17.6852 0.314789 18 0.703125 18H9C13.974 18 18 13.9747 18 9C18 4.02595 13.9747 0 9 0ZM9 16.5938H1.40625V9C1.40625 4.80315 4.80259 1.40625 9 1.40625C13.1968 1.40625 16.5938 4.80259 16.5938 9C16.5938 13.1968 13.1974 16.5938 9 16.5938Z" fill="white"/>
</svg>
