<svg width="20" height="20" viewBox="0 0 20 20" fill="none" xmlns="http://www.w3.org/2000/svg">
<path d="M14.5115 18.9656C12.7874 19.7416 11.293 20 9.25274 20C4.48273 20 0.287109 16.5803 0.287109 10.9484C0.287109 5.08625 4.53992 0 11.0346 0C16.0921 0 19.7127 3.47719 19.7127 8.30469C19.7127 12.5 17.3565 15.1437 14.253 15.1437C12.9024 15.1437 11.9255 14.4541 11.7818 12.9309H11.7243C10.8337 14.3966 9.54055 15.1437 8.01742 15.1437C6.14961 15.1437 4.79899 13.7644 4.79899 11.4078C4.79899 7.90219 7.38524 4.7125 11.523 4.7125C12.7874 4.7125 14.224 5.02875 14.9427 5.43094L14.0809 10.7472C13.7937 12.4422 13.9946 13.2184 14.7993 13.2469C16.0349 13.2756 17.5865 11.695 17.5865 8.39062C17.5865 4.655 15.1727 1.7525 10.7184 1.7525C6.32211 1.7525 2.47117 5.20094 2.47117 10.6894C2.47117 15.4881 5.54586 18.2181 9.82773 18.2181C11.2934 18.2181 12.8452 17.9022 13.9943 17.2984L14.5115 18.9656ZM11.954 7.09781C11.724 7.04031 11.4365 6.98281 11.063 6.98281C9.1668 6.98281 7.67211 8.85063 7.67211 11.0631C7.67211 12.155 8.16086 12.8447 9.10898 12.8447C10.1721 12.8447 11.293 11.4941 11.5515 9.8275L11.954 7.09781Z" fill="white"/>
</svg>
