<svg width="13" height="13" viewBox="0 0 13 13" fill="none" xmlns="http://www.w3.org/2000/svg">
<path d="M11.3242 1.01562H10.1562V0.40625C10.1562 0.181898 9.97438 0 9.75 0C9.52562 0 9.34375 0.181898 9.34375 0.40625V1.01562H3.65625V0.40625C3.65625 0.181898 3.47438 0 3.25 0C3.02562 0 2.84375 0.181898 2.84375 0.40625V1.01562H1.67578C0.75174 1.01562 0 1.76737 0 2.69141V11.3242C0 12.2483 0.75174 13 1.67578 13H11.3242C12.2483 13 13 12.2483 13 11.3242V2.69141C13 1.76737 12.2483 1.01562 11.3242 1.01562ZM1.67578 1.82812H2.84375V2.23438C2.84375 2.45873 3.02562 2.64062 3.25 2.64062C3.47438 2.64062 3.65625 2.45873 3.65625 2.23438V1.82812H9.34375V2.23438C9.34375 2.45873 9.52562 2.64062 9.75 2.64062C9.97438 2.64062 10.1562 2.45873 10.1562 2.23438V1.82812H11.3242C11.8002 1.82812 12.1875 2.21538 12.1875 2.69141V3.65625H0.8125V2.69141C0.8125 2.21538 1.19976 1.82812 1.67578 1.82812ZM11.3242 12.1875H1.67578C1.19976 12.1875 0.8125 11.8002 0.8125 11.3242V4.46875H12.1875V11.3242C12.1875 11.8002 11.8002 12.1875 11.3242 12.1875Z" fill="white"/>
</svg>
