<svg width="28" height="28" viewBox="0 0 28 28" fill="none" xmlns="http://www.w3.org/2000/svg">
<path d="M24.5 7H14L11.0125 4.01249C10.6843 3.68435 10.2392 3.50001 9.77515 3.5H3.5C3.03587 3.5 2.59075 3.68437 2.26256 4.01256C1.93437 4.34075 1.75 4.78587 1.75 5.25V22.75C1.75 23.2141 1.93437 23.6592 2.26256 23.9874C2.59075 24.3156 3.03587 24.5 3.5 24.5H14C14.4641 24.5 14.9092 24.3156 15.2374 23.9874C15.5656 23.6592 15.75 23.2141 15.75 22.75V14.7262L18.0163 16.9837L19.25 15.75L14.875 11.375L10.5 15.75L11.7337 16.9837L14 14.7262V22.75H3.5V5.25H9.77515L13.2752 8.75H24.5V22.75H19.25V24.5H24.5C24.9641 24.5 25.4092 24.3156 25.7374 23.9874C26.0656 23.6592 26.25 23.2141 26.25 22.75V8.75C26.25 8.28587 26.0656 7.84075 25.7374 7.51256C25.4092 7.18437 24.9641 7 24.5 7V7Z" fill="white"/>
</svg>
