<svg width="18" height="18" viewBox="0 0 18 18" fill="none" xmlns="http://www.w3.org/2000/svg">
<path d="M12.7793 18H8.73633C8.34799 18 8.0332 17.6852 8.0332 17.2969C8.0332 16.9085 8.34799 16.5938 8.73633 16.5938H12.7793C14.3301 16.5938 15.5918 15.3321 15.5918 13.7812V4.21875C15.5918 2.66794 14.3301 1.40625 12.7793 1.40625H8.73633C8.34799 1.40625 8.0332 1.09146 8.0332 0.703125C8.0332 0.314789 8.34799 0 8.73633 0H12.7793C15.1055 0 16.998 1.89253 16.998 4.21875V13.7812C16.998 16.1075 15.1055 18 12.7793 18ZM6.62695 17.2969V0.703125C6.62695 0.314789 6.31216 0 5.92383 0H5.2207C2.89448 0 1.00195 1.89253 1.00195 4.21875V13.7812C1.00195 16.1075 2.89448 18 5.2207 18H5.92383C6.31216 18 6.62695 17.6852 6.62695 17.2969ZM5.2207 16.5938C3.66989 16.5938 2.4082 15.3321 2.4082 13.7812V4.21875C2.4082 2.66794 3.66989 1.40625 5.2207 1.40625V16.5938ZM13.2012 6.82031C13.2012 5.6572 12.2549 4.71094 11.0918 4.71094C9.92869 4.71094 8.98242 5.6572 8.98242 6.82031C8.98242 7.98342 9.92869 8.92969 11.0918 8.92969C12.2549 8.92969 13.2012 7.98342 13.2012 6.82031ZM11.7949 6.82031C11.7949 7.20802 11.4795 7.52344 11.0918 7.52344C10.7041 7.52344 10.3887 7.20802 10.3887 6.82031C10.3887 6.43261 10.7041 6.11719 11.0918 6.11719C11.4795 6.11719 11.7949 6.43261 11.7949 6.82031ZM14.2207 12.5859C14.2207 10.9963 12.9093 9.70312 11.2974 9.70312H10.8862C9.27429 9.70312 7.96293 10.9963 7.96293 12.5859C7.96293 12.9743 8.27772 13.2891 8.66605 13.2891C9.05439 13.2891 9.36918 12.9743 9.36918 12.5859C9.36918 11.7718 10.0497 11.1094 10.8862 11.1094H11.2974C12.1339 11.1094 12.8145 11.7718 12.8145 12.5859C12.8145 12.9743 13.1292 13.2891 13.5176 13.2891C13.9059 13.2891 14.2207 12.9743 14.2207 12.5859Z" fill="white"/>
</svg>
