<svg width="27" height="27" viewBox="0 0 27 27" fill="none" xmlns="http://www.w3.org/2000/svg">
<path d="M23.0466 3.95337C20.4957 1.40245 17.1055 0 13.5 0C9.89448 0 6.50429 1.40245 3.95337 3.95337C1.40245 6.50429 0 9.89448 0 13.5C0 17.1055 1.40245 20.4957 3.95337 23.0466C6.50429 25.5975 9.89448 27 13.5 27C17.1055 27 20.4957 25.5975 23.0466 23.0466C25.5975 20.4957 27 17.1055 27 13.5C27 9.89448 25.5975 6.50429 23.0466 3.95337ZM13.5 25.5092C6.87975 25.5092 1.4908 20.1202 1.4908 13.5C1.4908 6.87975 6.87975 1.4908 13.5 1.4908C20.1202 1.4908 25.5092 6.87975 25.5092 13.5C25.5092 20.1202 20.1202 25.5092 13.5 25.5092Z" fill="white"/>
<path d="M13.4999 11.2193C15.438 11.2193 17.0116 9.64012 17.0116 7.70761C17.0116 5.77509 15.438 4.19043 13.4999 4.19043C11.5619 4.19043 9.98828 5.76957 9.98828 7.70209C9.98828 9.6346 11.5619 11.2193 13.4999 11.2193ZM13.4999 5.68123C14.6153 5.68123 15.5208 6.58675 15.5208 7.70209C15.5208 8.81742 14.6153 9.72294 13.4999 9.72294C12.3846 9.72294 11.4791 8.81742 11.4791 7.70209C11.4791 6.58675 12.3846 5.68123 13.4999 5.68123Z" fill="white"/>
<path d="M18.8229 15.488C17.5916 13.677 15.8027 12.7549 13.5002 12.7549C11.1978 12.7549 9.40882 13.6714 8.17754 15.488C7.26097 16.8353 6.67569 18.6739 6.44379 20.9377C6.39962 21.3463 6.69778 21.7162 7.10637 21.7549C7.51496 21.7991 7.8849 21.5009 7.92355 21.0923C8.39287 16.5481 10.2702 14.2457 13.5002 14.2457C16.7303 14.2457 18.6076 16.5481 19.0769 21.0923C19.1156 21.4733 19.4413 21.7604 19.8168 21.7604C19.8444 21.7604 19.8665 21.7604 19.8941 21.7549C20.3027 21.7107 20.6008 21.3463 20.5567 20.9377C20.3248 18.6684 19.7395 16.8353 18.8229 15.488Z" fill="white"/>
</svg>
