<svg width="18" height="18" viewBox="0 0 18 18" fill="none" xmlns="http://www.w3.org/2000/svg">
<path d="M12.3906 7.73438C12.3906 7.34604 12.0759 7.03125 11.6875 7.03125H4.44531C4.05698 7.03125 3.74219 7.34604 3.74219 7.73438C3.74219 8.12271 4.05698 8.4375 4.44531 8.4375H11.6875C12.0759 8.4375 12.3906 8.12271 12.3906 7.73438Z" fill="white"/>
<path d="M4.44531 9.84375C4.05698 9.84375 3.74219 10.1585 3.74219 10.5469C3.74219 10.9352 4.05698 11.25 4.44531 11.25H8.84373C9.23207 11.25 9.54686 10.9352 9.54686 10.5469C9.54686 10.1585 9.23207 9.84375 8.84373 9.84375H4.44531Z" fill="white"/>
<path d="M6.09766 16.5938H3.74609C2.97069 16.5938 2.33984 15.9629 2.33984 15.1875V2.8125C2.33984 2.03709 2.97069 1.40625 3.74609 1.40625H12.3906C13.166 1.40625 13.7969 2.03709 13.7969 2.8125V7.13672C13.7969 7.52505 14.1117 7.83984 14.5 7.83984C14.8883 7.83984 15.2031 7.52505 15.2031 7.13672V2.8125C15.2031 1.26169 13.9414 0 12.3906 0H3.74609C2.19528 0 0.933594 1.26169 0.933594 2.8125V15.1875C0.933594 16.7383 2.19528 18 3.74609 18H6.09766C6.486 18 6.80079 17.6852 6.80079 17.2969C6.80079 16.9085 6.486 16.5938 6.09766 16.5938Z" fill="white"/>
<path d="M16.4486 10.1804C15.6262 9.35795 14.288 9.35791 13.4661 10.1798L9.60579 14.0315C9.52381 14.1134 9.46334 14.2141 9.42966 14.3249L8.58897 17.0926C8.51444 17.338 8.57937 17.6044 8.75846 17.788C8.89261 17.9255 9.07486 18.0001 9.26179 18.0001C9.32433 18.0001 9.38747 17.9917 9.44945 17.9746L12.2874 17.1884C12.4042 17.1561 12.5107 17.0941 12.5965 17.0085L16.4486 13.1635C17.2711 12.3411 17.2711 11.0029 16.4486 10.1804ZM11.7339 15.8826L10.3061 16.2781L10.7239 14.9025L13.3286 12.3035L14.3232 13.2981L11.7339 15.8826ZM15.4548 12.1688L15.3185 12.3047L14.3241 11.3103L14.4599 11.1748C14.7341 10.9007 15.1801 10.9007 15.4543 11.1748C15.7284 11.449 15.7284 11.895 15.4548 12.1688Z" fill="white"/>
<path d="M11.6875 4.21875H4.44531C4.05698 4.21875 3.74219 4.53354 3.74219 4.92188C3.74219 5.31021 4.05698 5.625 4.44531 5.625H11.6875C12.0759 5.625 12.3906 5.31021 12.3906 4.92188C12.3906 4.53354 12.0759 4.21875 11.6875 4.21875Z" fill="white"/>
</svg>
