<svg width="14" height="14" viewBox="0 0 14 14" fill="none" xmlns="http://www.w3.org/2000/svg">
<path d="M12.9393 0H1.06021C0.708756 0 0.423828 0.284928 0.423828 0.636379V3.1819C0.423828 3.36123 0.499472 3.5322 0.632136 3.65282L5.09061 7.70562V13.3636C5.09061 13.5842 5.20477 13.789 5.39238 13.905C5.49462 13.9681 5.61061 14 5.72699 14C5.82427 14 5.9218 13.9777 6.01157 13.9328L8.55709 12.66C8.7727 12.5522 8.90888 12.3319 8.90888 12.0909V7.70562L13.3674 3.65282C13.5 3.5322 13.5757 3.36123 13.5757 3.1819V0.636379C13.5757 0.284928 13.2907 0 12.9393 0ZM7.84443 6.95321C7.71177 7.07382 7.63612 7.24479 7.63612 7.42413V11.6976L6.36337 12.334V7.42413C6.36337 7.24479 6.28772 7.07382 6.15506 6.95321L2.70635 3.81827H11.2931L7.84443 6.95321ZM12.3029 2.54552H1.69659V1.27276H12.3029V2.54552Z" fill="white"/>
</svg>
