<svg width="45" height="45" viewBox="0 0 45 45" fill="none" xmlns="http://www.w3.org/2000/svg">
<path d="M36.6196 12.1641H29.1488V16.5973H36.6196C38.8422 16.5973 40.566 17.7315 40.566 18.7083V38.3677C40.566 39.3438 38.8422 40.4794 36.6196 40.4794H8.3789C6.15709 40.4794 4.43328 39.3438 4.43328 38.3677V18.7105C4.43328 17.7337 6.15709 16.5988 8.3789 16.5988H15.849V12.1655H8.3789C3.68036 12.1655 0 15.0405 0 18.7105V38.3684C0 42.0392 3.68036 44.9127 8.3789 44.9127H36.6211C41.3182 44.9127 45 42.0377 45 38.3684V18.7105C44.9993 15.039 41.3189 12.1641 36.6196 12.1641Z" fill="white"/>
<path d="M29.2074 21.43C28.6399 21.43 28.0732 21.6472 27.6402 22.0802L24.865 24.8547V15.2293V10.796V2.30258C24.865 1.07899 23.8726 0.0859375 22.6483 0.0859375C21.424 0.0859375 20.4317 1.07899 20.4317 2.30258V10.7953V15.2285V25.0039L17.5065 22.0794C17.0735 21.6465 16.506 21.4292 15.9393 21.4292C15.3726 21.4292 14.8051 21.6465 14.3721 22.0794C13.5062 22.9439 13.5062 24.3478 14.3721 25.213L20.9903 31.8312C21.4233 32.2642 21.9907 32.4792 22.5567 32.4792C22.5626 32.4792 22.5685 32.4792 22.5737 32.4792C22.5789 32.4792 22.5848 32.4792 22.59 32.4792C23.1574 32.4792 23.7234 32.2642 24.1564 31.8312L30.7745 25.213C31.6405 24.3478 31.6405 22.9439 30.7745 22.0794C30.3415 21.6472 29.7756 21.43 29.2074 21.43Z" fill="white"/>
</svg>
