<svg width="18" height="18" viewBox="0 0 18 18" fill="none" xmlns="http://www.w3.org/2000/svg">
<path d="M10.5808 13.1614H10.3351L10.3372 7.61929C10.3297 7.24102 10.0213 6.93652 9.64112 6.93652H7.41755C7.03267 6.93652 6.7207 7.24854 6.7207 7.63328C6.7207 8.01816 7.03267 8.33013 7.41755 8.33013H7.79924V13.1614H7.55349C7.16861 13.1614 6.85664 13.4733 6.85664 13.8581C6.85664 14.2431 7.16861 14.555 7.55349 14.555H10.5808C10.9657 14.555 11.2777 14.2431 11.2777 13.8581C11.2777 13.4733 10.9657 13.1614 10.5808 13.1614Z" fill="white"/>
<path d="M9.0688 6.37197C9.87698 6.37197 10.5321 5.71681 10.5321 4.90864C10.5321 4.10047 9.87698 3.44531 9.0688 3.44531C8.26062 3.44531 7.60547 4.10047 7.60547 4.90864C7.60547 5.71681 8.26062 6.37197 9.0688 6.37197Z" fill="white"/>
<path d="M14.2633 0H3.73666C1.67628 0 0 1.67623 0 3.73662V14.2629C0 16.3235 1.67628 18 3.73666 18H14.2633C16.3238 18 18 16.3235 18 14.2629V3.73662C18 1.67623 16.3238 0 14.2633 0ZM16.3165 14.2629C16.3165 15.9466 15.9469 16.3165 14.2633 16.3165H3.73666C2.05318 16.3165 1.68354 15.9466 1.68354 14.2629V3.73662C1.68354 2.05314 2.05318 1.68354 3.73666 1.68354H14.2633C15.9469 1.68354 16.3165 2.05314 16.3165 3.73662V14.2629Z" fill="white"/>
</svg>
