<svg width="25" height="25" viewBox="0 0 25 25" fill="none" xmlns="http://www.w3.org/2000/svg">
<g clip-path="url(#clip0_35_25)">
<path d="M24.0235 11.5234H3.34191L6.76789 8.11406C7.15017 7.73359 7.15163 7.11528 6.77116 6.733C6.39069 6.35068 5.77233 6.34926 5.39006 6.72968L0.287323 11.8078C0.286981 11.8081 0.286737 11.8084 0.286444 11.8087C-0.0948545 12.1892 -0.0960752 12.8095 0.286347 13.1912C0.286688 13.1915 0.286933 13.1919 0.287226 13.1922L5.38996 18.2703C5.77219 18.6507 6.39055 18.6493 6.77106 18.267C7.15153 17.8847 7.15007 17.2664 6.76779 16.8859L3.34191 13.4766H24.0235C24.5628 13.4766 25 13.0393 25 12.5C25 11.9606 24.5628 11.5234 24.0235 11.5234Z" fill="white"/>
</g>
<defs>
<clipPath id="clip0_35_25">
<rect width="25" height="25" fill="white"/>
</clipPath>
</defs>
</svg>
