<svg width="18" height="18" viewBox="0 0 18 18" fill="none" xmlns="http://www.w3.org/2000/svg">
<path d="M13.7812 18H4.21875C1.89253 18 0 16.1072 0 13.7806V7.864C0 6.55632 0.620649 5.30215 1.66032 4.50908L6.44157 0.861831C7.94795 -0.287277 10.0521 -0.287277 11.5585 0.861831L13.0781 2.02005V1.12255C13.0781 0.73416 13.3929 0.419325 13.7812 0.419325C14.1696 0.419325 14.4844 0.73416 14.4844 1.12255V3.44007C14.4898 4.0158 13.8084 4.35191 13.3551 3.99938L10.7059 1.98031C9.7014 1.21408 8.2986 1.21408 7.29439 1.98014L2.51314 5.62739C1.82004 6.15608 1.40625 6.99221 1.40625 7.864V13.7806C1.40625 15.3317 2.66794 16.5935 4.21875 16.5935H13.7812C15.3321 16.5935 16.5938 15.3317 16.5938 13.7806V7.864C16.5938 6.98149 16.1846 6.14254 15.4994 5.61976C14.7791 5.02761 15.5914 3.96359 16.3522 4.50145C17.384 5.28854 18 6.54556 18 7.864V13.7806C18 16.1072 16.1075 18 13.7812 18ZM12.4805 11.2118C12.4532 9.96331 11.3105 8.41031 10.3841 7.20849C9.71525 6.32077 8.28468 6.32031 7.6159 7.20853C6.68964 8.40728 5.5465 9.96626 5.5195 11.2118C5.69394 15.8252 12.306 15.8257 12.4805 11.2118ZM9.27991 8.0794C10.6028 9.75723 11.0742 10.7976 11.0742 11.2118C11.0742 12.3568 10.1437 13.2884 9 13.2884C7.8563 13.2884 6.92578 12.3568 6.92578 11.2118C6.92578 10.7976 7.39716 9.75723 8.72009 8.0794C8.87154 7.89561 9.1298 7.89741 9.27991 8.0794Z" fill="white"/>
</svg>
