<svg width="20" height="20" viewBox="0 0 20 20" fill="none" xmlns="http://www.w3.org/2000/svg">
<g clip-path="url(#clip0_9_109)">
<path d="M2.11812 9.75391C2.11812 9.75391 2.90828 10.9147 4.56437 11.8973C4.56437 11.8973 3.36496 1.76051 11.1799 0C9.1777 7.34848 13.7268 9.42086 15.385 5.53852C18.1543 9.23582 16.0517 12.4615 16.0517 12.4615C17.1872 12.6251 18.141 11.3846 18.141 11.3846C18.1495 11.5374 18.1543 11.6912 18.1543 11.8462C18.1543 16.3494 14.5037 20 10.0005 20C5.49727 20 1.84668 16.3494 1.84668 11.8462C1.84668 11.1228 1.94137 10.4216 2.11812 9.75391Z" fill="#FF6536"/>
<path d="M18.1405 11.3846C18.1405 11.3846 17.1867 12.6251 16.0512 12.4615C16.0512 12.4615 18.1538 9.23582 15.3846 5.53852C13.7263 9.42086 9.17723 7.34848 11.1795 0C10.7609 0.0942969 10.3684 0.212773 10 0.352266V20C14.5032 20 18.1538 16.3494 18.1538 11.8462C18.1538 11.6912 18.1491 11.5374 18.1405 11.3846Z" fill="#FF421D"/>
<path d="M6.42383 16.4242C6.42383 18.3992 8.02484 20.0002 9.99977 20.0002C11.9747 20.0002 13.5757 18.3992 13.5757 16.4242C13.5757 15.3672 13.1171 14.4172 12.3879 13.7626C11.0053 15.6409 9.03508 12.7916 10.5705 10.7109C10.5705 10.7109 6.42383 11.2306 6.42383 16.4242Z" fill="#FBBF00"/>
<path d="M13.5759 16.4242C13.5759 15.3672 13.1173 14.4172 12.3881 13.7626C11.0055 15.6409 9.03531 12.7916 10.5708 10.7109C10.5708 10.7109 10.3455 10.7393 10 10.8483V20.0002C11.9749 20.0002 13.5759 18.3992 13.5759 16.4242Z" fill="#FFA900"/>
</g>
<defs>
<clipPath id="clip0_9_109">
<rect width="20" height="20" fill="white"/>
</clipPath>
</defs>
</svg>
