<svg width="18" height="18" viewBox="0 0 18 18" fill="none" xmlns="http://www.w3.org/2000/svg">
<path d="M12.3399 5.07617H7.86961C7.47561 5.07617 7.15625 5.3955 7.15625 5.78953C7.15625 6.18352 7.47557 6.50288 7.86961 6.50288H12.3399C12.7341 6.50288 13.0533 6.18356 13.0533 5.78953C13.0532 5.3955 12.7339 5.07617 12.3399 5.07617Z" fill="white"/>
<path d="M14.0519 8.52441H7.86961C7.47561 8.52441 7.15625 8.84374 7.15625 9.23777C7.15625 9.63176 7.47557 9.95112 7.86961 9.95112H14.0519C14.4459 9.95112 14.7653 9.6318 14.7653 9.23777C14.7653 8.84374 14.4459 8.52441 14.0519 8.52441Z" fill="white"/>
<path d="M17.2866 0.606445H4.66049C4.26649 0.606445 3.94713 0.92577 3.94713 1.3198V8.04899H2.68692C1.2053 8.04899 0 9.25453 0 10.7359V14.7068C0 16.1885 1.2053 17.3938 2.68692 17.3938C2.80818 17.3938 2.92757 17.3857 3.04432 17.37H14.8138C16.5705 17.37 18 15.9407 18 14.1838V1.3198C18 0.92577 17.6807 0.606445 17.2866 0.606445ZM3.94717 14.7068C3.94717 15.3182 3.5094 15.8294 2.93091 15.9433H2.68696V15.9671C1.99192 15.9671 1.42671 15.4016 1.42671 14.7068V10.7359C1.42671 10.0411 1.99216 9.47567 2.68696 9.47567H3.9472V14.7068H3.94717ZM16.5733 14.1837C16.5733 15.1375 15.7677 15.9433 14.8138 15.9433H5.0721C5.26493 15.5731 5.37384 15.1524 5.37384 14.7068V2.03312H16.5733V14.1837Z" fill="white"/>
<path d="M12.3399 11.7588H7.86961C7.47561 11.7588 7.15625 12.0781 7.15625 12.4721C7.15625 12.8661 7.47557 13.1855 7.86961 13.1855H12.3399C12.7341 13.1855 13.0533 12.8662 13.0533 12.4721C13.0532 12.0781 12.7339 11.7588 12.3399 11.7588Z" fill="white"/>
</svg>
