<svg width="28" height="28" viewBox="0 0 28 28" fill="none" xmlns="http://www.w3.org/2000/svg">
<path d="M2.7436 24.8126H25.2565C26.7564 24.8126 27.9767 23.5923 27.9767 22.0924V8.06213C27.9767 6.56221 26.7564 5.34198 25.2565 5.34198H15.1504L14.678 4.53351C14.4387 4.12394 14.0947 3.78259 13.6833 3.54646C13.2719 3.31037 12.8037 3.18555 12.3293 3.18555H2.7436C1.24367 3.18555 0.0234375 4.40583 0.0234375 5.9057V7.3463V21.2964V22.0925C0.0234375 23.5923 1.24372 24.8126 2.7436 24.8126ZM2.02777 21.2964V7.34635V5.90575C2.02777 5.51041 2.34825 5.18992 2.7436 5.18992H12.3293C12.5838 5.18992 12.8191 5.32495 12.9474 5.54465L13.7928 6.99162C13.9211 7.21128 14.1564 7.34635 14.4109 7.34635H25.2565C25.6518 7.34635 25.9723 7.66684 25.9723 8.06218V22.0925C25.9723 22.4878 25.6518 22.8083 25.2565 22.8083H2.7436C2.34825 22.8083 2.02777 22.4878 2.02777 22.0925V21.2964Z" fill="white"/>
<path d="M25.2564 24.8359H2.74355C1.23076 24.8359 0 23.6052 0 22.0924V5.90566C0 4.39287 1.23076 3.16211 2.74355 3.16211H12.3293C12.8077 3.16211 13.2799 3.28796 13.6949 3.52615C14.1099 3.76434 14.4568 4.10855 14.6981 4.52167L15.1637 5.31854H25.2564C26.7692 5.31854 28 6.5493 28 8.06209V22.0924C28 23.6052 26.7692 24.8359 25.2564 24.8359ZM2.74355 3.20885C1.25654 3.20885 0.0467864 4.41865 0.0467864 5.90566V22.0924C0.0467864 23.5794 1.25654 24.7892 2.74355 24.7892H25.2564C26.7434 24.7892 27.9532 23.5794 27.9532 22.0924V8.06209C27.9532 6.57508 26.7435 5.36533 25.2564 5.36533H15.1369L14.6578 4.5453C14.4206 4.13924 14.0796 3.80084 13.6716 3.56672C13.2637 3.33265 12.7996 3.2089 12.3293 3.2089H2.74355V3.20885ZM25.2564 22.8316H2.74355C2.33595 22.8316 2.00433 22.5 2.00433 22.0924V5.90566C2.00433 5.49806 2.33595 5.16644 2.74355 5.16644H12.3293C12.591 5.16644 12.8356 5.3068 12.9675 5.53277L13.8129 6.97969C13.9366 7.19135 14.1657 7.32282 14.4108 7.32282H25.2564C25.6641 7.32282 25.9957 7.65444 25.9957 8.06205V22.0923C25.9957 22.5 25.6641 22.8316 25.2564 22.8316ZM2.74355 5.21322C2.36173 5.21322 2.05111 5.52384 2.05111 5.90566V22.0924C2.05111 22.4742 2.36173 22.7848 2.74355 22.7848H25.2564C25.6383 22.7848 25.9489 22.4742 25.9489 22.0924V8.06209C25.9489 7.68027 25.6383 7.36965 25.2564 7.36965H14.4109C14.1491 7.36965 13.9046 7.22929 13.7725 7.00332L12.9272 5.55635C12.8036 5.34469 12.5744 5.21322 12.3293 5.21322H2.74355Z" fill="white"/>
</svg>
