<svg width="26" height="26" viewBox="0 0 26 26" fill="none" xmlns="http://www.w3.org/2000/svg">
<path d="M13.0008 1.94922C15.1863 1.94922 17.3227 2.59729 19.1398 3.81148C20.957 5.02567 22.3733 6.75145 23.2096 8.77057C24.046 10.7897 24.2648 13.0115 23.8385 15.155C23.4121 17.2985 22.3597 19.2674 20.8143 20.8128C19.2689 22.3581 17.3 23.4105 15.1565 23.8369C13.013 24.2633 10.7912 24.0444 8.77212 23.2081C6.753 22.3717 5.02723 20.9554 3.81304 19.1383C2.59885 17.3211 1.95078 15.1847 1.95078 12.9992C1.94958 11.5478 2.23458 10.1103 2.78947 8.76916C3.34436 7.42797 4.15825 6.20935 5.18458 5.18302C6.2109 4.1567 7.42952 3.34281 8.77071 2.78792C10.1119 2.23303 11.5493 1.94803 13.0008 1.94922V1.94922ZM13.0008 21.4492C14.672 21.4492 16.3057 20.9536 17.6953 20.0251C19.0849 19.0966 20.168 17.7769 20.8076 16.2329C21.4471 14.6889 21.6145 12.9898 21.2884 11.3507C20.9624 9.71157 20.1576 8.20592 18.9758 7.02417C17.7941 5.84242 16.2884 5.03763 14.6493 4.71159C13.0102 4.38554 11.3111 4.55288 9.7671 5.19244C8.22307 5.832 6.90335 6.91506 5.97486 8.30465C5.04636 9.69425 4.55078 11.328 4.55078 12.9992C4.54855 14.1095 4.76559 15.2093 5.18946 16.2355C5.61332 17.2617 6.23566 18.1941 7.02076 18.9792C7.80585 19.7643 8.73826 20.3867 9.76447 20.8105C10.7907 21.2344 11.8905 21.4515 13.0008 21.4492V21.4492ZM9.10078 12.0242H11.7008V9.42422C11.7008 9.07944 11.8377 8.74878 12.0815 8.50498C12.3253 8.26119 12.656 8.12422 13.0008 8.12422C13.3456 8.12422 13.6762 8.26119 13.92 8.50498C14.1638 8.74878 14.3008 9.07944 14.3008 9.42422V12.0242H16.9008C17.2456 12.0242 17.5762 12.1612 17.82 12.405C18.0638 12.6488 18.2008 12.9794 18.2008 13.3242C18.2008 13.669 18.0638 13.9997 17.82 14.2435C17.5762 14.4873 17.2456 14.6242 16.9008 14.6242H14.3008V17.2242C14.3008 17.569 14.1638 17.8997 13.92 18.1435C13.6762 18.3873 13.3456 18.5242 13.0008 18.5242C12.656 18.5242 12.3253 18.3873 12.0815 18.1435C11.8377 17.8997 11.7008 17.569 11.7008 17.2242V14.6242H9.10078C8.756 14.6242 8.42533 14.4873 8.18154 14.2435C7.93774 13.9997 7.80078 13.669 7.80078 13.3242C7.80078 12.9794 7.93774 12.6488 8.18154 12.405C8.42533 12.1612 8.756 12.0242 9.10078 12.0242Z" fill="white"/>
</svg>
