<svg width="17" height="16" viewBox="0 0 17 16" fill="none" xmlns="http://www.w3.org/2000/svg">
<path d="M0.551722 12.6903H1.93103C2.23447 12.6903 2.48275 12.442 2.48275 12.1386V3.58688C2.48275 3.28343 2.23447 3.03516 1.93103 3.03516H0.551722C0.248275 3.03516 0 3.28343 0 3.58688V12.1386C0 12.442 0.248275 12.6903 0.551722 12.6903Z" fill="white"/>
<path d="M16.0013 3.03516H14.622C14.3186 3.03516 14.0703 3.28343 14.0703 3.58688V12.1386C14.0703 12.442 14.3186 12.6903 14.622 12.6903H16.0013C16.3048 12.6903 16.5531 12.442 16.5531 12.1386V3.58688C16.5531 3.28343 16.3048 3.03516 16.0013 3.03516Z" fill="white"/>
<path d="M9.10533 12.6903C9.40877 12.6903 9.65705 12.442 9.65705 12.1386V3.58688C9.65705 3.28343 9.40877 3.03516 9.10533 3.03516H7.45016C7.14671 3.03516 6.89844 3.28343 6.89844 3.58688V12.1386C6.89844 12.442 7.14671 12.6903 7.45016 12.6903H9.10533Z" fill="white"/>
<path d="M12.4159 12.6903C12.7194 12.6903 12.9677 12.442 12.9677 12.1386V3.58688C12.9677 3.28343 12.7194 3.03516 12.4159 3.03516H11.8642C11.5608 3.03516 11.3125 3.28343 11.3125 3.58688V12.1386C11.3125 12.442 11.5608 12.6903 11.8642 12.6903H12.4159Z" fill="white"/>
<path d="M5.24212 12.6903C5.54556 12.6903 5.79384 12.442 5.79384 12.1386V3.58688C5.79384 3.28343 5.54556 3.03516 5.24212 3.03516H4.69039C4.38695 3.03516 4.13867 3.28343 4.13867 3.58688V12.1386C4.13867 12.442 4.38695 12.6903 4.69039 12.6903H5.24212Z" fill="white"/>
<path d="M15.9999 14.3447H0.551722C0.248275 14.3447 0 14.593 0 14.8964V15.4482C0 15.7516 0.248275 15.9999 0.551722 15.9999H15.9999C16.3034 15.9999 16.5517 15.7516 16.5517 15.4482V14.8964C16.5517 14.593 16.3034 14.3447 15.9999 14.3447Z" fill="white"/>
<path d="M15.9999 0H0.551722C0.248275 0 0 0.248275 0 0.551722V1.10344C0 1.40689 0.248275 1.65516 0.551722 1.65516H15.9999C16.3034 1.65516 16.5517 1.40689 16.5517 1.10344V0.551722C16.5517 0.248275 16.3034 0 15.9999 0Z" fill="white"/>
</svg>
