<svg width="21" height="21" viewBox="0 0 21 21" fill="none" xmlns="http://www.w3.org/2000/svg">
<g clip-path="url(#clip0_9_587)">
<path d="M18.5092 14.5425C21.8315 11.2201 21.8314 5.81415 18.5092 2.49178C15.1868 -0.830593 9.78093 -0.830593 6.45862 2.49178C3.64004 5.31036 3.21317 9.50231 5.17685 12.7758C5.17685 12.7758 5.3179 13.0124 5.1274 13.2028C4.0406 14.2895 0.779991 17.5502 0.779991 17.5502C-0.0853239 18.4154 -0.291319 19.6254 0.476038 20.3929L0.608159 20.5248C1.37552 21.2923 2.58551 21.0864 3.45076 20.2211C3.45076 20.2211 6.70446 16.9673 7.78903 15.8828C7.98867 15.6832 8.22524 15.8242 8.22524 15.8242C11.4986 17.7878 15.6906 17.361 18.5092 14.5425ZM8.03176 12.9693C5.57687 10.5144 5.57694 6.52001 8.03183 4.06512C10.4867 1.6103 14.4811 1.61023 16.9359 4.06512C19.3908 6.51995 19.3908 10.5144 16.9359 12.9693C14.481 15.424 10.4867 15.424 8.03176 12.9693Z" fill="#B3BAC1"/>
<path d="M8.57463 8.0114C8.46037 8.0114 8.34422 7.98894 8.23225 7.94166C7.78502 7.75237 7.57578 7.23633 7.76506 6.78903C8.95476 3.97755 12.2099 2.65817 15.0213 3.84787C15.4685 4.03715 15.6778 4.55319 15.4885 5.00049C15.2991 5.4478 14.7832 5.6569 14.3358 5.46769C12.4176 4.65602 10.1965 5.55624 9.38495 7.4744C9.24295 7.80987 8.91728 8.0114 8.57463 8.0114Z" fill="#B3BAC1"/>
</g>
<defs>
<clipPath id="clip0_9_587">
<rect width="21" height="21" fill="white"/>
</clipPath>
</defs>
</svg>
